<?xml version="1.0" standalone="no"?>
<!DOCTYPE svg PUBLIC "-//W3C//DTD SVG 20010904//EN"
 "http://www.w3.org/TR/2001/REC-SVG-20010904/DTD/svg10.dtd">
<svg version="1.0" xmlns="http://www.w3.org/2000/svg"
 width="420.000000pt" height="420.000000pt" viewBox="0 0 420.000000 420.000000"
 preserveAspectRatio="xMidYMid meet">
<metadata>
Created by potrace 1.11, written by Peter Selinger 2001-2013
</metadata>
<g transform="translate(0.000000,420.000000) scale(0.100000,-0.100000)"
fill="#000000" stroke="none">
<path d="M1960 3889 c-214 -25 -393 -78 -595 -179 -646 -321 -1032 -1025 -954
-1738 66 -608 420 -1116 970 -1393 283 -142 638 -205 954 -169 599 69 1110
424 1375 955 105 211 154 377 179 607 73 655 -255 1320 -822 1667 -334 204
-728 293 -1107 250z m433 -404 c259 -46 501 -171 699 -363 180 -174 310 -398
368 -630 l31 -123 -32 -57 c-114 -204 -309 -421 -431 -481 -91 -45 -179 -52
-261 -21 -144 54 -279 177 -442 401 -179 248 -296 378 -424 474 -310 233 -626
236 -930 7 -46 -34 -85 -61 -87 -60 -7 8 98 212 147 284 65 97 238 272 339
343 150 106 336 185 515 221 118 24 384 26 508 5z m-791 -1026 c112 -58 215
-163 393 -399 246 -326 372 -448 560 -541 140 -69 203 -83 345 -76 96 4 129
10 199 36 88 32 179 86 268 159 29 23 53 39 53 34 0 -23 -126 -257 -171 -317
-82 -110 -244 -264 -355 -338 -235 -156 -446 -217 -755 -217 -234 0 -389 35
-591 135 -131 65 -231 138 -354 260 -196 194 -315 409 -369 666 l-15 72 31 56
c102 181 247 353 371 438 99 69 146 84 235 79 60 -4 85 -11 155 -47z"/>
</g>
</svg>
